<?xml version="1.0" standalone="no"?>
<!DOCTYPE svg PUBLIC "-//W3C//DTD SVG 20010904//EN"
 "http://www.w3.org/TR/2001/REC-SVG-20010904/DTD/svg10.dtd">
<svg version="1.0" xmlns="http://www.w3.org/2000/svg"
 width="500.000000pt" height="500.000000pt" viewBox="0 0 500.000000 500.000000"
 preserveAspectRatio="xMidYMid meet">
<metadata>
Created by potrace 1.11, written by Peter Selinger 2001-2013
</metadata>
<g transform="translate(0.000000,500.000000) scale(0.100000,-0.100000)"
fill="#000000" stroke="none">
<path d="M0 2500 l0 -2500 2500 0 2500 0 0 2500 0 2500 -2500 0 -2500 0 0
-2500z m2725 1372 c-6 -34 -64 -105 -81 -100 -5 1 -24 -1 -41 -5 -30 -6 -33
-10 -33 -41 0 -19 -5 -58 -11 -86 -6 -28 -9 -53 -7 -54 1 -2 36 -6 76 -10 56
-5 72 -3 70 6 -2 7 7 23 20 36 l23 23 -7 -28 c-4 -16 -11 -34 -16 -40 -7 -9
-3 -16 16 -23 49 -19 71 -31 104 -55 31 -22 35 -23 69 -9 32 14 37 14 55 -3
11 -10 23 -17 27 -15 3 2 9 -7 13 -20 10 -38 9 -48 -7 -42 -8 3 -2 -7 13 -24
l27 -29 27 20 c29 21 53 16 26 -6 -8 -6 -22 -22 -30 -35 -18 -27 -9 -61 33
-127 40 -63 49 -82 49 -109 0 -13 7 -32 16 -40 23 -24 57 -173 49 -220 -3 -22
0 -61 6 -87 10 -38 10 -71 -1 -161 -7 -62 -14 -124 -14 -138 -1 -14 -4 -29 -7
-35 -4 -5 -10 -24 -14 -42 -3 -18 -17 -54 -30 -81 -13 -27 -27 -66 -31 -87 -4
-24 -23 -56 -52 -88 -25 -28 -53 -71 -64 -96 -45 -108 -96 -183 -169 -251 -47
-44 -95 -80 -106 -80 -4 0 -43 -34 -86 -75 -98 -94 -203 -148 -322 -165 -44
-6 -93 -13 -110 -17 -16 -3 -27 -3 -24 1 3 3 42 13 87 21 84 16 167 47 156 58
-4 4 2 10 12 14 25 9 124 86 124 96 0 4 6 5 13 1 6 -4 5 0 -3 8 -19 20 -86 32
-95 18 -3 -6 -11 -7 -17 -4 -7 4 -8 2 -4 -4 13 -22 -129 -146 -179 -157 l-30
-6 30 14 c32 15 115 100 115 117 0 6 5 8 10 5 7 -4 9 3 5 22 -4 19 -3 22 3 9
8 -17 9 -17 25 7 9 14 34 35 56 48 26 14 49 39 66 71 15 27 37 56 50 64 30 19
89 110 81 123 -4 6 3 15 15 21 21 12 80 127 95 184 l7 30 -31 -22 c-34 -25
-50 -29 -33 -9 6 8 8 17 4 20 -3 4 1 9 10 13 9 3 21 21 27 40 8 23 18 34 30
34 21 0 40 28 40 60 0 19 -2 19 -52 -10 -29 -17 -84 -47 -122 -66 -37 -19 -65
-38 -62 -41 3 -3 11 -1 18 4 9 7 24 6 47 -4 27 -11 31 -17 20 -24 -20 -13 -29
-11 -29 6 0 8 -4 15 -10 15 -5 0 -7 -6 -4 -13 4 -10 -3 -12 -26 -9 -16 2 -30
8 -30 13 0 4 -44 6 -97 2 -166 -10 -231 -4 -305 25 -173 69 -325 271 -329 436
-2 78 -11 110 -34 114 -11 2 -24 8 -30 14 -7 6 -1 7 17 3 l27 -7 -6 64 c-5 54
-2 71 17 108 13 25 29 65 36 90 23 78 54 164 70 193 9 15 22 39 29 54 29 55
108 134 163 163 31 16 71 38 87 49 17 12 38 21 48 21 28 0 77 29 77 45 0 9 11
37 25 63 13 26 26 60 29 76 6 34 16 47 16 20 0 -10 3 -30 7 -43 4 -15 2 -22
-4 -18 -10 7 -71 -98 -62 -108 4 -3 19 -1 35 6 16 6 49 14 74 18 44 6 45 7 56
56 19 80 17 114 -8 137 -13 11 -17 17 -10 13 7 -4 12 0 12 9 0 11 10 16 33 16
59 0 73 9 90 58 13 35 16 39 12 16 -2 -18 -7 -45 -11 -60 l-7 -29 22 19 c11
11 21 26 21 35 0 8 6 40 13 70 l12 55 3 -39 c2 -22 1 -54 -3 -73z m-221 -111
c10 -15 -19 -94 -40 -112 -13 -10 -13 -8 -5 14 6 15 8 34 5 42 -4 8 -1 15 5
15 7 0 11 19 11 48 l-1 47 -21 -25 -21 -25 7 29 c4 15 14 35 21 43 8 8 16 24
16 36 1 12 5 -5 9 -39 4 -33 10 -66 14 -73z m-124 -35 c0 -2 -16 -23 -35 -46
-44 -52 -46 -43 -3 11 29 37 38 45 38 35z m445 -186 c10 -11 13 -20 7 -20 -6
0 -16 9 -22 20 -6 11 -9 20 -7 20 2 0 12 -9 22 -20z m389 -488 c-8 -18 -17
-32 -19 -32 -6 0 8 45 18 58 17 22 18 7 1 -26z m-1416 -227 c-3 -3 -9 2 -12
12 -6 14 -5 15 5 6 7 -7 10 -15 7 -18z m772 -805 c0 -13 -1 -13 -10 0 -5 8
-10 22 -10 30 0 13 1 13 10 0 5 -8 10 -22 10 -30z m30 -40 c0 -5 -2 -10 -4
-10 -3 0 -8 5 -11 10 -3 6 -1 10 4 10 6 0 11 -4 11 -10z m-74 -61 c19 -22 19
-22 -3 -8 -13 8 -23 17 -23 21 0 12 6 9 26 -13z m-227 -315 c-18 -20 -42 -40
-52 -46 -16 -8 -17 -7 -8 10 12 23 71 72 85 72 6 0 -6 -16 -25 -36z m-204 -92
c-3 -3 -11 0 -18 7 -9 10 -8 11 6 5 10 -3 15 -9 12 -12z m74 -86 c-16 -16
-109 -73 -109 -68 0 4 24 22 52 40 48 29 69 39 57 28z m-114 -255 c-3 -6 -11
-11 -17 -11 -6 0 -6 6 2 15 14 17 26 13 15 -4z"/>
<path d="M2373 3465 c-79 -39 -139 -98 -179 -178 -29 -57 -76 -219 -76 -262 0
-126 12 -226 34 -290 24 -68 26 -70 59 -70 32 0 34 -2 34 -37 1 -26 -3 -34
-11 -28 -6 6 -14 7 -17 3 -4 -3 -7 1 -7 10 0 9 -4 17 -8 17 -4 0 -6 -17 -4
-37 3 -30 16 -51 60 -95 31 -32 61 -58 66 -58 5 0 6 3 3 7 -6 5 65 43 81 43 3
0 -5 -11 -18 -25 -36 -39 -16 -41 31 -4 29 22 54 34 80 35 41 2 60 -19 32 -35
-22 -12 -25 -51 -4 -43 33 12 71 55 61 67 -14 17 -1 26 29 19 24 -5 25 -4 9 9
-24 20 -23 30 2 15 11 -7 28 -32 36 -55 9 -24 23 -48 30 -54 8 -6 14 -17 14
-23 -1 -6 -10 0 -21 13 -16 20 -24 23 -37 14 -13 -8 -21 -6 -35 11 -15 17 -20
18 -27 6 -14 -21 -12 -30 4 -24 8 3 17 -3 21 -15 3 -11 16 -21 28 -23 38 -5
24 -23 -23 -28 -42 -5 -43 -6 -15 -12 25 -5 93 4 192 27 34 8 57 59 44 97 -6
17 -9 33 -7 36 3 2 8 -7 12 -22 14 -56 35 -25 54 81 30 167 5 484 -43 551 -12
15 -20 9 -24 -18 -2 -11 2 -20 7 -20 6 0 10 -4 10 -10 0 -5 -7 -7 -15 -4 -11
5 -13 2 -9 -10 3 -9 9 -14 13 -12 3 2 7 -12 8 -31 1 -29 -1 -32 -13 -23 -7 7
-11 16 -8 21 6 11 -25 73 -33 65 -10 -10 -33 15 -33 35 0 11 -7 19 -15 19 -8
0 -15 5 -15 11 0 6 11 8 29 4 25 -5 29 -3 35 21 5 17 10 23 15 16 13 -21 29
20 19 48 -9 24 -10 24 -24 6 -13 -18 -14 -14 -14 40 0 33 -6 67 -12 75 -20 24
-65 49 -90 49 -21 1 -22 2 -5 14 16 13 14 16 -30 42 -26 15 -68 32 -93 36
-110 20 -112 20 -187 -17z m172 -45 c-3 -5 -11 -10 -16 -10 -6 0 -7 5 -4 10 3
6 11 10 16 10 6 0 7 -4 4 -10z m44 -145 l0 -20 -9 20 c-5 11 -9 27 -9 35 -1
13 0 13 9 0 5 -8 9 -24 9 -35z m101 -95 c13 -11 19 -20 13 -20 -5 0 -18 9 -28
20 -10 11 -16 20 -13 20 3 0 15 -9 28 -20z m25 -40 c3 -6 -1 -7 -9 -4 -18 7
-21 14 -7 14 6 0 13 -4 16 -10z m163 -165 c-3 -3 -9 2 -12 12 -6 14 -5 15 5 6
7 -7 10 -15 7 -18z m-68 -76 c0 -4 -7 -9 -15 -13 -9 -3 -15 0 -15 8 0 7 7 13
15 13 8 0 15 -4 15 -8z m15 -305 c-2 -20 -7 -39 -10 -42 -7 -7 -6 43 1 62 10
27 14 18 9 -20z m-420 16 c3 -5 2 -10 -4 -10 -5 0 -13 5 -16 10 -3 6 -2 10 4
10 5 0 13 -4 16 -10z m432 -92 c-3 -7 -5 -2 -5 12 0 14 2 19 5 13 2 -7 2 -19
0 -25z m-367 2 c0 -5 -4 -10 -10 -10 -5 0 -10 5 -10 10 0 6 5 10 10 10 6 0 10
-4 10 -10z"/>
<path d="M2950 3420 c-11 -7 -12 -12 -3 -21 8 -8 14 -6 22 10 12 22 5 27 -19
11z"/>
<path d="M2821 3411 c-10 -6 -10 -10 -1 -16 13 -8 24 -1 19 14 -3 6 -10 7 -18
2z"/>
<path d="M2077 3255 c-19 -13 -23 -34 -7 -36 38 -5 45 -2 48 17 4 26 -18 36
-41 19z"/>
<path d="M2950 3261 c0 -5 7 -11 15 -15 8 -3 15 -1 15 3 0 5 -7 11 -15 15 -8
3 -15 1 -15 -3z"/>
<path d="M2904 3251 c4 -5 1 -11 -5 -13 -16 -5 -2 -93 17 -113 9 -8 13 -19 9
-25 -9 -15 7 -110 21 -125 16 -16 19 -29 4 -20 -15 9 -12 -19 5 -51 8 -16 15
-40 15 -53 0 -17 4 -22 16 -17 12 5 14 1 8 -17 -13 -39 -4 -90 22 -124 36 -47
56 -43 85 19 13 29 35 65 47 80 23 27 23 29 7 72 -9 24 -16 56 -14 72 3 44 0
78 -7 71 -11 -11 -41 37 -47 76 -3 22 -18 55 -33 74 -22 28 -24 37 -13 44 8 5
10 9 4 9 -5 0 -21 3 -35 6 -21 6 -23 4 -12 -7 20 -21 14 -31 -10 -17 -13 7
-26 11 -30 10 -4 -1 -10 8 -14 21 -7 22 -21 37 -37 37 -5 0 -6 -4 -3 -9z m76
-128 c0 -7 -4 -13 -10 -13 -5 0 -10 7 -10 15 0 8 -4 15 -8 15 -5 0 -9 7 -9 15
0 13 3 13 19 -2 10 -9 18 -22 18 -30z m-20 -138 c0 -5 -5 -3 -10 5 -5 8 -10
20 -10 25 0 6 5 3 10 -5 5 -8 10 -19 10 -25z m160 -28 c0 -7 -7 -22 -15 -33
-8 -10 -15 -31 -15 -46 0 -16 -4 -28 -10 -28 -12 0 -7 44 9 88 13 32 31 43 31
19z m-47 -184 c-7 -2 -19 -2 -25 0 -7 3 -2 5 12 5 14 0 19 -2 13 -5z"/>
<path d="M1992 3211 c-21 -19 -30 -34 -26 -45 3 -9 1 -16 -5 -16 -12 0 -51
-58 -51 -75 0 -5 5 -2 11 8 5 9 20 17 32 17 41 0 66 12 73 34 7 20 8 19 15 -7
4 -16 4 -38 -1 -50 -7 -18 -9 -18 -9 -4 -1 13 -10 17 -41 17 -48 0 -56 -12
-62 -100 -3 -36 -3 -57 -1 -47 3 9 9 17 14 17 5 0 9 11 9 24 0 17 5 24 18 23
12 -1 17 -10 18 -34 0 -18 -2 -33 -6 -33 -4 0 -12 -11 -18 -25 -6 -14 -18 -25
-27 -25 -17 0 -20 -11 -6 -25 5 -6 12 -21 16 -35 8 -24 7 -24 -18 -7 -40 26
-47 6 -31 -88 21 -116 31 -162 33 -147 2 24 31 13 31 -12 0 -14 5 -28 11 -31
5 -4 8 -12 6 -18 -4 -13 -3 -13 50 -72 20 -22 31 -33 24 -23 -17 23 4 34 25
13 9 -9 23 -14 31 -11 8 3 18 6 23 6 4 0 10 15 13 33 4 17 9 43 13 56 6 21 5
22 -13 12 -15 -7 -19 -17 -16 -35 5 -25 5 -25 -24 -11 -29 14 -42 41 -58 118
-3 15 -13 31 -23 34 -33 12 -50 40 -56 94 -4 39 -3 48 4 32 12 -28 30 -30 30
-3 0 11 6 20 13 20 16 0 37 41 37 70 0 11 6 20 14 20 20 0 23 26 12 84 l-9 48
-12 -28 -12 -29 -8 28 c-6 22 -2 36 14 57 11 16 21 34 21 40 0 5 3 10 8 10 4
0 8 25 9 55 1 51 -1 56 -23 61 -13 3 -28 12 -32 20 -5 10 -15 6 -40 -15z"/>
<path d="M2836 3145 c-3 -8 -1 -15 4 -15 6 0 10 7 10 15 0 8 -2 15 -4 15 -2 0
-6 -7 -10 -15z"/>
<path d="M2787 3104 c-8 -8 1 -24 14 -24 5 0 9 7 9 15 0 15 -12 20 -23 9z"/>
<path d="M1991 2704 c0 -11 3 -14 6 -6 3 7 2 16 -1 19 -3 4 -6 -2 -5 -13z"/>
<path d="M2980 2668 c0 -14 -4 -28 -10 -30 -5 -1 -11 -24 -13 -50 -1 -26 -6
-50 -10 -54 -4 -4 -7 -20 -7 -36 0 -15 -4 -28 -10 -28 -5 0 -10 -9 -10 -19 0
-11 -4 -23 -10 -26 -5 -3 -10 -23 -10 -44 0 -44 27 -74 62 -69 19 2 23 -1 23
-24 0 -14 3 -30 8 -34 4 -4 7 3 7 15 0 12 5 31 11 43 6 11 12 34 12 51 1 17 8
32 16 35 9 3 11 -2 6 -17 -8 -27 11 -28 25 -1 15 27 5 40 -31 40 -29 0 -29 0
-27 55 2 36 7 55 16 55 6 0 12 3 12 8 0 4 9 13 20 20 17 10 20 10 20 -2 0 -8
-7 -22 -17 -31 -15 -16 -14 -18 13 -40 25 -21 31 -22 40 -9 6 8 11 43 10 77
-1 53 1 61 12 50 18 -17 17 -19 19 27 1 46 -14 52 -54 20 -37 -29 -67 -25 -97
13 l-26 32 0 -27z"/>
<path d="M2650 2461 c0 -6 4 -13 10 -16 6 -3 7 1 4 9 -7 18 -14 21 -14 7z"/>
<path d="M2466 2452 c-2 -4 -1 -14 5 -22 7 -12 9 -10 9 8 0 23 -5 28 -14 14z"/>
<path d="M2215 2404 c4 -22 1 -48 -6 -66 -10 -24 -9 -31 6 -48 20 -22 40 -17
73 16 26 27 27 34 7 34 -8 0 -14 3 -13 8 4 16 -14 52 -27 52 -8 0 -17 9 -20
20 -11 36 -28 23 -20 -16z"/>
<path d="M2405 2420 c-3 -5 5 -15 18 -21 17 -8 23 -17 20 -30 -6 -21 15 -33
44 -26 16 4 15 6 -4 12 -29 9 -30 25 -2 18 16 -4 20 -2 17 8 -2 8 -15 16 -29
17 -13 2 -28 10 -32 18 -9 16 -23 18 -32 4z"/>
<path d="M2382 2393 c-10 -4 -10 -8 -1 -19 15 -18 39 -18 39 0 0 16 -19 25
-38 19z"/>
<path d="M2090 2371 c0 -6 5 -11 11 -11 5 0 7 -4 4 -10 -4 -6 5 -10 19 -10 30
0 35 15 9 24 -10 3 -24 9 -30 12 -7 3 -13 1 -13 -5z"/>
<path d="M2177 2354 c-4 -4 -7 -14 -7 -23 0 -11 3 -12 11 -4 6 6 10 16 7 23
-2 6 -7 8 -11 4z"/>
<path d="M3040 2317 c0 -32 10 -40 26 -19 19 25 17 42 -6 42 -14 0 -20 -7 -20
-23z"/>
<path d="M2302 2298 c-14 -14 -16 -38 -3 -38 5 0 18 -3 28 -6 17 -5 17 -5 0 6
-12 7 -16 18 -12 31 7 22 4 24 -13 7z"/>
<path d="M2942 2259 c-7 -13 -16 -44 -20 -69 -8 -47 -12 -49 -62 -36 -21 6
-29 2 -39 -18 -12 -22 -11 -31 7 -72 18 -43 19 -50 5 -70 -8 -13 -12 -28 -8
-34 3 -5 -1 -10 -9 -10 -9 0 -16 -6 -16 -13 0 -8 -9 -22 -19 -31 -15 -14 -20
-14 -25 -4 -3 7 -4 -2 -1 -21 7 -43 12 -48 33 -33 9 6 31 18 47 25 17 8 39 26
48 41 10 15 23 24 29 20 7 -5 9 -2 5 9 -3 9 -2 19 4 22 8 5 59 101 59 112 0 1
-8 0 -17 -3 -15 -5 -15 -3 1 10 11 9 25 16 32 16 17 0 30 19 53 78 22 55 15
66 -18 31 -29 -32 -53 -21 -66 30 -10 42 -11 43 -23 20z m-57 -209 c3 -5 -1
-10 -9 -10 -9 0 -16 5 -16 10 0 6 4 10 9 10 6 0 13 -4 16 -10z"/>
<path d="M2800 1978 c0 -19 2 -20 10 -8 13 19 13 30 0 30 -5 0 -10 -10 -10
-22z"/>
<path d="M2670 1820 c0 -5 5 -10 10 -10 6 0 10 5 10 10 0 6 -4 10 -10 10 -5 0
-10 -4 -10 -10z"/>
<path d="M2610 1804 c0 -8 -4 -13 -9 -9 -12 7 -25 -31 -16 -45 3 -5 2 -10 -4
-10 -5 0 -10 -8 -10 -17 -1 -10 -2 -31 -3 -48 -4 -42 22 -42 52 0 14 19 30 35
36 35 6 0 17 12 25 26 13 24 12 28 -13 49 -15 13 -24 27 -20 31 4 5 -2 2 -12
-6 -13 -10 -17 -10 -12 -2 4 6 2 12 -3 12 -6 0 -11 -7 -11 -16z"/>
<path d="M2728 1813 c7 -3 16 -2 19 1 4 3 -2 6 -13 5 -11 0 -14 -3 -6 -6z"/>
</g>
</svg>
